<?xml version="1.0" encoding="utf-8"?>
<!-- Generator: Adobe Illustrator 24.3.0, SVG Export Plug-In . SVG Version: 6.00 Build 0)  -->
<svg version="1.1" id="Layer_1" xmlns="http://www.w3.org/2000/svg" xmlns:xlink="http://www.w3.org/1999/xlink" x="0px" y="0px"
	 viewBox="0 0 1563.8 411.2" style="enable-background:new 0 0 1563.8 411.2;" xml:space="preserve">
<style type="text/css">
	.st0{fill:#caf0f8;}
	.st1{fill:#edf2f4;}
	.st2{fill:#edf2f4;}
</style>
<g>
	<path class="st0" d="M112.9,43.1c0.1,0,2.6-3.7,5.5-8.2c5.2-7.9,5.5-8.2,5.5-9.7c0-2.4-0.6-3-6.6-6.9c-6.1-4-7-4.3-9.2-3.1
		c-1,0.5-1.9,1.7-6.7,8.9c-3.1,4.6-5.8,8.7-6.1,9.1L94.8,34l9,4.5C108.8,41,112.9,43.1,112.9,43.1z"/>
	<path class="st0" d="M139.4,56.2c0-0.1,2.1-3.2,4.6-7l4.6-6.9l-0.1-1.5c-0.1-0.8-0.4-1.9-0.7-2.3c-0.3-0.4-3-2.4-6-4.3
		c-6.1-3.9-7.1-4.3-9.2-3.2c-0.8,0.4-2.2,2.2-6.2,8.2c-2.8,4.2-5.2,7.7-5.2,7.9C121.2,47.3,139.2,56.4,139.4,56.2z"/>
	<path class="st0" d="M169.6,142.9c0.1-4.3,0.2-5,0.6-5.5c0.3-0.5,1.9-1.9,3.5-3c5.5-3.8,9.1-8.4,11-14.1c1.2-3.6,1.5-6.7,1.5-14.8
		v-6.7l-1.3,1c-1.7,1.4-4.3,2.6-6.7,3c-3.7,0.6-4.1,0.5-27.7-10c-19-8.4-21.8-9.6-23.1-9.6H126l9.6,19.2c8.6,17.1,9.6,19.3,9.6,20.6
		c0,2.5-1.7,4.3-4.3,4.3c-3,0-2.3,1.1-14.2-22.7L116,83.3h-10.1c-9.9,0-10.1,0-11.4-0.7c-3.1-1.6-3.2-5.9-0.2-7.7
		c1-0.6,1.6-0.6,16.1-0.6c18.1,0,16.7,0.3,19.5-3.9c1-1.5,2-3.2,2.2-3.7c0.4-1.3-0.1-3.1-1.2-4.1C130,61.6,93.4,43.3,92,43
		c-0.5-0.1-1.4,0-2,0.2c-0.6,0.2-1.3,0.6-1.6,0.8c-0.9,0.7-21.9,32.6-22.1,33.5c-0.1,0.5-0.1,1.4,0.1,2c0.2,0.7,7,10,17.2,23.9
		c10.1,13.7,17,23.3,17.3,24c0.4,1.1,0.3,1.7-3,14.7c-1.2,1.4-10.8,20.1-32.5,63.4c-17.1,34.3-31.2,62.8-31.2,63.4
		c0,1.5,1,3.2,2.3,3.8c0.8,0.4,7.9,0.5,22.8,0.5c17,0,21.5,0.1,21.3,0.6c-0.1,0.3-10.6,25.3-23.3,55.4s-23,55.2-23,55.8
		c0,1.5,2.5,3.9,4,3.9c0.6,0,1.6-0.3,2.2-0.8c1-0.7,131.4-155.2,133.4-158c1.2-1.7,1-3.7-0.4-5.1l-1.2-1.2H147
		c-20,0-25.2-0.1-25-0.6c0.1-0.3,10.8-17.2,23.7-37.6c4-6.2,7.7-12.2,11-17.4"/>
	<path class="st0" d="M140,77.9c1.1,1.1,10.2,5,11.5,5c2.1,0,2.7-0.7,11.3-13.6c7.7-11.5,8.2-12.3,8.2-13.6c0-2.5-0.5-3.1-6.1-6.7
		c-3.3-2.1-4.1-2.5-5.4-2.6c-1.2-0.1-1.7,0-2.5,0.6c-1.2,0.8-17.5,24.9-18.1,26.7C138.5,75.2,138.9,76.8,140,77.9z"/>
	<path class="st0" d="M193.3,68.4c-0.6-1.2-1-1.6-4.5-3.9c-5.5-3.6-6.2-3.9-8.1-3.5c-0.5,0.1-1.3,0.5-1.8,0.9
		c-1.2,1.1-15,21.9-15.2,23c-0.3,1.3,0.3,3.1,1.3,4c0.5,0.4,3.1,1.7,5.8,2.9c5.3,2.3,6.4,2.5,8.1,1.3c1.1-0.8,14.6-21.1,14.9-22.4
		C193.8,70.1,193.7,69.4,193.3,68.4z"/>
</g>
<g>
	<g>
		<path class="st1" d="M270.9,36.7h91.3c3.9,0,7.5,1,10.7,2.9c3.2,1.9,5.8,4.5,7.7,7.7c1.9,3.2,2.9,6.8,2.9,10.7v24
			c0,1.4-0.1,2.8-0.4,4.2c-0.3,1.4-0.7,2.7-1.4,3.9c2.2,3,3.8,5.9,5,8.6c1.1,2.7,1.7,5.4,1.7,8.1v26.2c0,3.9-1,7.5-2.9,10.7
			c-1.9,3.2-4.5,5.8-7.7,7.7c-3.3,1.9-6.8,2.9-10.8,2.9h-96V36.7z M292.5,85.4h69.1c1.1,0,2-0.4,2.8-1.2c0.8-0.8,1.1-1.8,1.1-2.9
			v-23c0-1.1-0.4-2-1.1-2.9c-0.8-0.8-1.7-1.2-2.8-1.2h-69.1c-1.1,0-2,0.4-2.9,1.2c-0.8,0.8-1.2,1.8-1.2,2.9v23c0,1.1,0.4,2,1.2,2.9
			S291.5,85.4,292.5,85.4z M292.5,136.4h74c1.1,0,2-0.4,2.8-1.2c0.8-0.8,1.1-1.8,1.1-2.9v-25.3c0-1.1-0.4-2-1.1-2.9
			c-0.8-0.8-1.7-1.2-2.8-1.2h-74c-1.1,0-2,0.4-2.9,1.2c-0.8,0.8-1.2,1.8-1.2,2.9v25.3c0,1.1,0.4,2,1.2,2.9S291.5,136.4,292.5,136.4z
			"/>
		<path class="st1" d="M406.1,154V36.5h17.6v99.9h99.7V154H406.1z"/>
		<path class="st1" d="M543.1,151.2c-3.2-1.9-5.8-4.5-7.7-7.7c-1.9-3.2-2.9-6.8-2.9-10.7V36.7h17.6v95.7c0,1.1,0.4,2,1.2,2.9
			c0.8,0.8,1.8,1.2,2.9,1.2h74c1.1,0,2-0.4,2.8-1.2c0.8-0.8,1.1-1.8,1.1-2.9V36.7h17.8v96.2c0,3.9-1,7.5-2.9,10.7
			c-1.9,3.2-4.5,5.8-7.7,7.7c-3.2,1.9-6.8,2.9-10.7,2.9h-75C549.9,154,546.3,153.1,543.1,151.2z"/>
		<path class="st1" d="M668.2,154V36.7h107.6v17.6H686v32.3h72.2v17.6H686v32.3h89.8V154H668.2z"/>
		<path class="st1" d="M840,154V36.8h96c3.9,0,7.5,1,10.8,2.9c3.3,2,5.8,4.5,7.7,7.7c1.9,3.2,2.9,6.7,2.9,10.5v32.9
			c0,3.9-1,7.5-2.9,10.7c-1.9,3.2-4.5,5.8-7.7,7.7c-3.3,1.9-6.8,2.9-10.8,2.9l-78.4,0.2V154H840z M861.6,94.4h74
			c1.1,0,2-0.4,2.8-1.1c0.8-0.8,1.1-1.7,1.1-2.8V58.5c0-1.1-0.4-2-1.1-2.9c-0.8-0.8-1.7-1.2-2.8-1.2h-74c-1.1,0-2,0.4-2.9,1.2
			c-0.8,0.8-1.2,1.8-1.2,2.9v31.9c0,1.1,0.4,2,1.2,2.8C859.6,94,860.6,94.4,861.6,94.4z"/>
		<path class="st1" d="M989.7,154c-3.9,0-7.5-0.9-10.7-2.9c-3.2-1.9-5.8-4.5-7.7-7.7c-1.9-3.2-2.9-6.8-2.9-10.7v-75
			c0-3.9,1-7.5,2.9-10.7c1.9-3.2,4.5-5.8,7.7-7.7c3.2-1.9,6.8-2.9,10.7-2.9h75c3.9,0,7.5,1,10.7,2.9c3.2,1.9,5.8,4.5,7.7,7.7
			c1.9,3.2,2.9,6.8,2.9,10.7v75c0,3.9-1,7.5-2.9,10.7c-1.9,3.2-4.5,5.8-7.7,7.7c-3.2,1.9-6.8,2.9-10.7,2.9H989.7z M990.2,136.4h74
			c1.1,0,2-0.4,2.8-1.2c0.8-0.8,1.1-1.8,1.1-2.9v-74c0-1.1-0.4-2-1.1-2.9c-0.8-0.8-1.7-1.2-2.8-1.2h-74c-1.1,0-2,0.4-2.9,1.2
			c-0.8,0.8-1.2,1.8-1.2,2.9v74c0,1.1,0.4,2,1.2,2.9C988.2,136,989.1,136.4,990.2,136.4z"/>
		<path class="st1" d="M1143.1,154l-42.7-117.3h18.7l31.1,85.4l31.1-85.4h18.6l31.3,85.4l31-85.4h18.9L1238.4,154h-14.5l-33.2-91.3
			l-33.2,91.3H1143.1z"/>
		<path class="st1" d="M1296.3,154V36.7h107.6v17.6h-89.8v32.3h72.2v17.6h-72.2v32.3h89.8V154H1296.3z"/>
		<path class="st1" d="M1420.8,154V36.8h96c3.9,0,7.5,1,10.8,2.9c3.3,2,5.8,4.5,7.7,7.7c1.9,3.2,2.9,6.7,2.9,10.5v32.9
			c0,3.9-1,7.5-2.9,10.7c-1.9,3.2-4.5,5.8-7.7,7.7c-3.3,1.9-6.8,2.9-10.8,2.9l-78.4,0.2V154H1420.8z M1442.5,94.4h74
			c1.1,0,2-0.4,2.8-1.1c0.8-0.8,1.1-1.7,1.1-2.8V58.5c0-1.1-0.4-2-1.1-2.9c-0.8-0.8-1.7-1.2-2.8-1.2h-74c-1.1,0-2,0.4-2.9,1.2
			c-0.8,0.8-1.2,1.8-1.2,2.9v31.9c0,1.1,0.4,2,1.2,2.8C1440.4,94,1441.4,94.4,1442.5,94.4z M1517,154l-36.7-43.8h23l34.2,40.6v3.3
			H1517z"/>
	</g>
</g>
<g>
	<g>
		<path class="st2" d="M271.6,361.5V201.9h146.2v23.9H295.7v43.9h98.1v23.9h-98.1v43.9h122.1v23.9H271.6z"/>
		<path class="st2" d="M441.1,361.5V201.7H465v135.8h135.6v23.9H441.1z"/>
		<path class="st2" d="M613.9,361.5V201.9h146.2v23.9H638v43.9h98.1v23.9H638v43.9h122.1v23.9H613.9z"/>
		<path class="st2" d="M811.9,361.5c-5.3,0-10.2-1.3-14.5-3.9c-4.4-2.6-7.8-6.1-10.4-10.4c-2.6-4.4-3.9-9.2-3.9-14.5V230.7
			c0-5.3,1.3-10.2,3.9-14.5c2.6-4.4,6.1-7.8,10.4-10.4c4.4-2.6,9.2-3.9,14.5-3.9h130.3v23.9H815.3c-2.4,0-4.3,0.8-5.9,2.3
			s-2.3,3.5-2.3,5.9v95.3c0,2.4,0.8,4.3,2.3,5.9s3.5,2.3,5.9,2.3h126.9v23.9H811.9z"/>
		<path class="st2" d="M1025.1,361.5V225.9h-67.8v-23.9h159.5v23.9H1049v135.6H1025.1z"/>
		<path class="st2" d="M1133.4,361.5V202.2h130.5c5.3,0,10.2,1.3,14.6,4c4.4,2.7,7.9,6.2,10.5,10.5c2.6,4.4,3.9,9.1,3.9,14.3v44.8
			c0,5.3-1.3,10.2-3.9,14.5c-2.6,4.4-6.1,7.8-10.5,10.4c-4.4,2.6-9.3,3.9-14.6,3.9l-106.6,0.2v56.7H1133.4z M1162.8,280.4h100.6
			c1.5,0,2.7-0.5,3.8-1.6c1-1,1.6-2.3,1.6-3.8v-43.4c0-1.5-0.5-2.8-1.6-3.9c-1-1.1-2.3-1.7-3.8-1.7h-100.6c-1.5,0-2.8,0.6-3.9,1.7
			c-1.1,1.1-1.7,2.4-1.7,3.9v43.4c0,1.5,0.6,2.7,1.7,3.8C1160.1,279.9,1161.4,280.4,1162.8,280.4z M1264.1,361.5l-49.8-59.6h31.2
			L1292,357v4.4H1264.1z"/>
		<path class="st2" d="M1315.5,361.5V201.9h23.9v159.5H1315.5z"/>
		<path class="st2" d="M1392.4,361.5c-5.3,0-10.2-1.3-14.5-3.9c-4.4-2.6-7.8-6.1-10.4-10.4c-2.6-4.4-3.9-9.2-3.9-14.5V230.7
			c0-5.3,1.3-10.2,3.9-14.5c2.6-4.4,6.1-7.8,10.4-10.4c4.4-2.6,9.2-3.9,14.5-3.9h130.3v23.9h-126.9c-2.4,0-4.3,0.8-5.9,2.3
			s-2.3,3.5-2.3,5.9v95.3c0,2.4,0.8,4.3,2.3,5.9s3.5,2.3,5.9,2.3h126.9v23.9H1392.4z"/>
	</g>
</g>
</svg>
